HIERARCHY
ROOT Hips
{
  OFFSET 5.84602e-005 68.8428 3.50346
  CHANNELS 6 Xposition Yposition Zposition Zrotation Xrotation Yrotation
  JOINT Spine
  {
    OFFSET 0 8.597 -4.6522
    CHANNELS 3 Zrotation Xrotation Yrotation
    JOINT Spine1
    {
      OFFSET 0 7.8454 0.4098
      CHANNELS 3 Zrotation Xrotation Yrotation
      JOINT Spine2
      {
        OFFSET 0 9.7078 -2.1609
        CHANNELS 3 Zrotation Xrotation Yrotation
        JOINT Neck
        {
          OFFSET 0 21.8761 -0.4549
          CHANNELS 3 Zrotation Xrotation Yrotation
          JOINT Head
          {
            OFFSET 0 12.3537 3.3602
            CHANNELS 3 Zrotation Xrotation Yrotation
            End Site
            {
              OFFSET 0.0001 18.9506 0.5657
            }
          }
        }
        JOINT LeftShoulder
        {
          OFFSET 2.2086 21.1115 7.2329
          CHANNELS 3 Zrotation Xrotation Yrotation
          JOINT LeftArm
          {
            OFFSET 13.1193 3.0282 -4.8998
            CHANNELS 3 Zrotation Xrotation Yrotation
            JOINT LeftForeArm
            {
              OFFSET 27.4081 -0.0973053 -0.2375
              CHANNELS 3 Zrotation Xrotation Yrotation
              JOINT LeftHand
              {
                OFFSET 22.8641 0.0662994 -0.1369
                CHANNELS 3 Zrotation Xrotation Yrotation
                JOINT LeftHandIndex1
                {
                  OFFSET 8.8614 0.775009 2.4612
                  CHANNELS 3 Zrotation Xrotation Yrotation
                  JOINT LeftHandIndex2
                  {
                    OFFSET 3.3146 -0.808304 0.5841
                    CHANNELS 3 Zrotation Xrotation Yrotation
                    JOINT LeftHandIndex3
                    {
                      OFFSET 2.2628 -0.552002 0.3989
                      CHANNELS 3 Zrotation Xrotation Yrotation
                      End Site
                      {
                        OFFSET 1.6102 -0.4807 0.2612
                      }
                    }
                  }
                }
                JOINT LeftHandMiddle1
                {
                  OFFSET 8.9937 0.895004 0.2143
                  CHANNELS 3 Zrotation Xrotation Yrotation
                  JOINT LeftHandMiddle2
                  {
                    OFFSET 4.0984 0.0113983 -0.0242
                    CHANNELS 3 Zrotation Xrotation Yrotation
                    JOINT LeftHandMiddle3
                    {
                      OFFSET 2.2716 0.00689697 -0.0138001
                      CHANNELS 3 Zrotation Xrotation Yrotation
                      End Site
                      {
                        OFFSET 2.0404 -0.1441 0.0027
                      }
                    }
                  }
                }
                JOINT LeftHandRing1
                {
                  OFFSET 8.5234 0.597198 -2.0164
                  CHANNELS 3 Zrotation Xrotation Yrotation
                  JOINT LeftHandRing2
                  {
                    OFFSET 3.7188 -0.188293 -0.2328
                    CHANNELS 3 Zrotation Xrotation Yrotation
                    JOINT LeftHandRing3
                    {
                      OFFSET 2.1191 -0.106598 -0.1332
                      CHANNELS 3 Zrotation Xrotation Yrotation
                      End Site
                      {
                        OFFSET 1.8737 -0.2304 -0.0886
                      }
                    }
                  }
                }
                JOINT LeftHandPinky1
                {
                  OFFSET 7.9094 -0.601089 -3.4825
                  CHANNELS 3 Zrotation Xrotation Yrotation
                  JOINT LeftHandPinky2
                  {
                    OFFSET 2.2874 -0.477005 -0.6314
                    CHANNELS 3 Zrotation Xrotation Yrotation
                    JOINT LeftHandPinky3
                    {
                      OFFSET 1.6774 -0.349396 -0.4633
                      CHANNELS 3 Zrotation Xrotation Yrotation
                      End Site
                      {
                        OFFSET 1.4888 -0.4091 -0.3416
                      }
                    }
                  }
                }
                JOINT LeftHandThumb1
                {
                  OFFSET 1.833 -1.3875 1.3896
                  CHANNELS 3 Zrotation Xrotation Yrotation
                  JOINT LeftHandThumb2
                  {
                    OFFSET 3.4129 -1.121 2.5732
                    CHANNELS 3 Zrotation Xrotation Yrotation
                    JOINT LeftHandThumb3
                    {
                      OFFSET 2.2474 -0.804199 1.6192
                      CHANNELS 3 Zrotation Xrotation Yrotation
                      End Site
                      {
                        OFFSET 1.6527 -0.5689 1.1317
                      }
                    }
                  }
                }
              }
            }
          }
        }
        JOINT RightShoulder
        {
          OFFSET -2.2086 21.1115 7.2329
          CHANNELS 3 Zrotation Xrotation Yrotation
          JOINT RightArm
          {
            OFFSET -13.1216 3.0287 -4.9007
            CHANNELS 3 Zrotation Xrotation Yrotation
            JOINT RightForeArm
            {
              OFFSET -27.4081 -0.0973053 -0.2375
              CHANNELS 3 Zrotation Xrotation Yrotation
              JOINT RightHand
              {
                OFFSET -22.8641 0.0664063 -0.1369
                CHANNELS 3 Zrotation Xrotation Yrotation
                JOINT RightHandIndex1
                {
                  OFFSET -8.8614 0.774994 2.4612
                  CHANNELS 3 Zrotation Xrotation Yrotation
                  JOINT RightHandIndex2
                  {
                    OFFSET -3.3146 -0.808304 0.5841
                    CHANNELS 3 Zrotation Xrotation Yrotation
                    JOINT RightHandIndex3
                    {
                      OFFSET -2.2628 -0.552002 0.3989
                      CHANNELS 3 Zrotation Xrotation Yrotation
                      End Site
                      {
                        OFFSET -1.6102 -0.4807 0.2612
                      }
                    }
                  }
                }
                JOINT RightHandMiddle1
                {
                  OFFSET -8.9937 0.894989 0.2143
                  CHANNELS 3 Zrotation Xrotation Yrotation
                  JOINT RightHandMiddle2
                  {
                    OFFSET -4.0984 0.0113983 -0.0242
                    CHANNELS 3 Zrotation Xrotation Yrotation
                    JOINT RightHandMiddle3
                    {
                      OFFSET -2.2716 0.00691223 -0.0138001
                      CHANNELS 3 Zrotation Xrotation Yrotation
                      End Site
                      {
                        OFFSET -2.0404 -0.1441 0.0027
                      }
                    }
                  }
                }
                JOINT RightHandRing1
                {
                  OFFSET -8.5234 0.597198 -2.0164
                  CHANNELS 3 Zrotation Xrotation Yrotation
                  JOINT RightHandRing2
                  {
                    OFFSET -3.7188 -0.188309 -0.2328
                    CHANNELS 3 Zrotation Xrotation Yrotation
                    JOINT RightHandRing3
                    {
                      OFFSET -2.1191 -0.106598 -0.1332
                      CHANNELS 3 Zrotation Xrotation Yrotation
                      End Site
                      {
                        OFFSET -1.8737 -0.2304 -0.0886
                      }
                    }
                  }
                }
                JOINT RightHandPinky1
                {
                  OFFSET -7.9094 -0.601105 -3.4825
                  CHANNELS 3 Zrotation Xrotation Yrotation
                  JOINT RightHandPinky2
                  {
                    OFFSET -2.2874 -0.477005 -0.6314
                    CHANNELS 3 Zrotation Xrotation Yrotation
                    JOINT RightHandPinky3
                    {
                      OFFSET -1.6774 -0.349396 -0.4633
                      CHANNELS 3 Zrotation Xrotation Yrotation
                      End Site
                      {
                        OFFSET -1.4888 -0.4091 -0.3416
                      }
                    }
                  }
                }
                JOINT RightHandThumb1
                {
                  OFFSET -1.833 -1.38751 1.3896
                  CHANNELS 3 Zrotation Xrotation Yrotation
                  JOINT RightHandThumb2
                  {
                    OFFSET -3.41299 -1.12099 2.5732
                    CHANNELS 3 Zrotation Xrotation Yrotation
                    JOINT RightHandThumb3
                    {
                      OFFSET -2.24741 -0.804108 1.6192
                      CHANNELS 3 Zrotation Xrotation Yrotation
                      End Site
                      {
                        OFFSET -1.6527 -0.5689 1.1317
                      }
                    }
                  }
                }
              }
            }
          }
        }
      }
    }
  }
  JOINT RightUpLeg
  {
    OFFSET -9.1966 3.8861 -0.7581
    CHANNELS 3 Zrotation Xrotation Yrotation
    JOINT RightLeg
    {
      OFFSET -0.7359 -41.0265 0
      CHANNELS 3 Zrotation Xrotation Yrotation
      JOINT RightFoot
      {
        OFFSET 0 -40.2855 0
        CHANNELS 3 Zrotation Xrotation Yrotation
        JOINT RightToeBase
        {
          OFFSET 0 -5.6122 11.7359
          CHANNELS 3 Zrotation Xrotation Yrotation
          End Site
          {
            OFFSET 0 0 7.8731
          }
        }
      }
    }
  }
  JOINT LeftUpLeg
  {
    OFFSET 9.1965 3.8864 -0.7581
    CHANNELS 3 Zrotation Xrotation Yrotation
    JOINT LeftLeg
    {
      OFFSET 0.7359 -41.0268 0
      CHANNELS 3 Zrotation Xrotation Yrotation
      JOINT LeftFoot
      {
        OFFSET 0 -40.2855 0
        CHANNELS 3 Zrotation Xrotation Yrotation
        JOINT LeftToeBase
        {
          OFFSET 0 -5.6122 11.7359
          CHANNELS 3 Zrotation Xrotation Yrotation
          End Site
          {
            OFFSET 0 0 7.8731
          }
        }
      }
    }
  }
}
MOTION
Frames:	5
Frame Time:	0.0333333
5.84602e-005 68.8428 3.50346 0 0 -0 0 0 -0 0 0 -0 0 0 -0 0 0 -0 0 0 -0 0 0 -0 0 0 -0 0 0 -0 0 0 -0 0 0 -0 0 0 -0 0 0 -0 0 0 -0 -0.0146107 -8.87603e-005 -2.63497e-007 2.99804e-018 -2.42657e-020 -1.42182e-022 0 0 -0 -0.0187562 -0.001176 5.858e-005 5.06224e-018 3.88251e-019 1.21329e-020 0 0 -0 -0.012269 -0.00324817 0.000675346 -1.74678e-018 3.88251e-019 -0 0 0 -0 0 0 -0 0 0 -0 0 0 -0 0 0 -0 0 0 -0 0 0 -0 0 0 -0 0 0 -0 0 0 -0 0 0 -0 0.0149955 -9.10982e-005 2.64101e-007 -9.69331e-018 1.21329e-020 -4.7394e-023 0 0 -0 0.0189956 -0.00119102 -5.96516e-005 -5.41541e-019 0 2.42657e-020 0 0 -0 0.0122698 -0.00324857 -0.000673756 -2.00796e-019 0 -1.94126e-019 0 0 -0 0 0 -0 0 0 -0 3.39842 1.33031 -0.0637918 -5.65207e-008 0.834868 -0.000436188 -3.39935 -2.16518 -0.0642563 -8.89002e-024 -1.18485e-023 -1.48106e-024 -3.39844 1.35642 0.0640283 -3.18788e-007 0.782166 -0.000588827 3.39931 -2.13858 0.0634662 1.1399e-023 0 -0 
17.8823 21.11 -20.0572 -66.6886 76.3044 0.0108652 1.77312 -0.487943 -0.404592 3.54298 -0.988169 -0.793954 3.54298 -0.98819 -0.793918 -0.000111434 44.4707 0.000151245 -0.0298837 4.92917 0.00180662 -14.3398 -1.9232 -33.5685 -32.4985 -12.4789 -11.917 1.85987 -8.66294 -9.88554 -7.30118 0.735634 -24.35 -2.22209e-007 -3.07985e-006 8.20986e-007 -1.19271e-015 -3.18055e-015 -1.19271e-015 7.92475e-008 -3.28509e-006 5.10236e-008 -2.22209e-007 -3.07985e-006 8.20986e-007 -0.014634 -9.28654e-005 -3.73912e-006 7.90866e-008 -3.2851e-006 5.06039e-008 -2.22209e-007 -3.07985e-006 8.20986e-007 -0.0187183 -0.001178 5.91054e-005 7.90403e-008 -3.28512e-006 5.04868e-008 -2.22209e-007 -3.07985e-006 8.20986e-007 -0.0122949 -0.00325502 0.000681929 -2.02705e-007 -5.04517e-006 3.16376e-007 -2.22209e-007 -3.07985e-006 8.20986e-007 -1.19271e-015 -3.18055e-015 -1.19271e-015 7.92475e-008 -3.28509e-006 5.10236e-008 -0.0491316 0.790614 18.6213 42.6996 -5.84999 8.55417 26.9427 -50.1411 74.1095 32.7586 13.1243 3.85951 -7.95139e-016 1.59028e-015 3.18055e-015 -7.95139e-016 0 -3.18055e-015 1.59028e-015 -1.59028e-015 -0 -7.95139e-016 1.59028e-015 3.18055e-015 0.0149621 -9.1685e-005 8.68358e-007 -9.83256e-007 4.88421e-007 1.08832e-006 -7.95139e-016 1.59028e-015 3.18055e-015 0.0189929 -0.0011901 -6.03929e-005 -6.36111e-015 -3.18055e-015 -0 -7.95139e-016 1.59028e-015 3.18055e-015 0.0122641 -0.00324577 -0.000674371 -9.83562e-007 4.88001e-007 1.08827e-006 -7.95139e-016 1.59028e-015 3.18055e-015 -7.95139e-016 0 -3.18055e-015 1.59028e-015 -1.59028e-015 -0 -1.72973 -11.6681 -1.68691 26.3725 44.6295 -24.5779 -4.82017 20.9322 1.51336 -5.9782e-007 -1.03274e-006 -1.18499e-006 1.20928 -27.6191 1.82711 -1.65473 24.7682 1.52222 4.56228 4.27061 0.327533 -7.95139e-016 1.59028e-015 5.46658e-015 
31.4652 -0.328537 -28.4831 83.3267 69.3586 179.989 2.59347 -0.573974 -0.194065 5.1854 -1.15613 -0.362062 5.18537 -1.15614 -0.362027 -0.000955999 64.2022 0.00100225 -0.043336 6.0916 0.00189992 -21.0356 -2.44248 -48.2256 -49.4286 -17.4366 -17.8944 1.70492 -12.3487 -15.5184 -10.2572 0.849342 -34.9386 3.97569e-016 -1.59028e-015 -3.18055e-015 7.95139e-016 4.77083e-015 -3.18055e-015 3.97569e-015 1.59028e-015 -1.59028e-015 3.97569e-016 -1.59028e-015 -3.18055e-015 -0.0146395 -8.96467e-005 1.09536e-006 1.59028e-015 4.77083e-015 1.59028e-015 3.97569e-016 -1.59028e-015 -3.18055e-015 -0.0187801 -0.00117972 5.96539e-005 1.98785e-015 1.59028e-015 3.18055e-015 3.97569e-016 -1.59028e-015 -3.18055e-015 -0.0122716 -0.00324519 0.000679632 -7.55382e-015 6.36111e-015 3.18055e-015 3.97569e-016 -1.59028e-015 -3.18055e-015 7.95139e-016 4.77083e-015 -3.18055e-015 3.97569e-015 1.59028e-015 -1.59028e-015 -0.371135 1.01385 26.8842 62.5785 -8.3138 12.5228 53.9655 -31.6644 104.672 46.7284 18.8894 5.92783 2.78473e-006 -1.19564e-007 -7.84328e-007 3.48615e-007 1.62507e-006 -2.72953e-007 3.25014e-006 -6.97231e-007 -5.61533e-007 2.78473e-006 -1.19564e-007 -7.84328e-007 0.0150065 -9.13652e-005 3.06046e-007 3.25007e-006 -6.97304e-007 -5.61444e-007 2.78473e-006 -1.19564e-007 -7.84328e-007 0.0189785 -0.00118671 -5.62628e-005 3.25004e-006 -6.97316e-007 -5.61451e-007 2.78473e-006 -1.19564e-007 -7.84328e-007 0.0122814 -0.00325007 -0.000675665 3.25007e-006 -6.97256e-007 -5.61547e-007 2.78473e-006 -1.19564e-007 -7.84328e-007 3.48615e-007 1.62507e-006 -2.72953e-007 3.25014e-006 -6.97231e-007 -5.61533e-007 -3.6241 -18.0865 -2.31147 57.2884 57.7202 -50.8202 -6.05547 32.4701 2.19343 5.1684e-015 2.54444e-014 2.38542e-015 4.08386 -40.7555 3.2328 -2.87549 37.0376 2.44061 5.27836 5.8217 0.530656 -8.08529e-007 -2.64928e-006 4.1854e-007 
28.2671 4.77699 -26.8203 89.9996 76.9891 179.985 2.41394 -0.346034 -0.29033 4.82623 -0.703993 -0.56575 4.82622 -0.704007 -0.565766 -0.000922362 59.1937 0.000911139 -0.0401288 3.48493 0.000276647 -18.5428 -2.92596 -43.9302 -46.8002 -15.8809 -16.9063 1.8314 -11.5508 -16.4819 -9.28892 0.584536 -31.7603 3.97569e-015 3.18055e-015 -4.77083e-015 7.95139e-016 0 -1.59028e-015 7.95139e-016 0 -3.18055e-015 3.97569e-015 3.18055e-015 -4.77083e-015 -0.0146116 -8.95012e-005 4.10192e-007 -7.95139e-016 0 -1.59028e-015 3.97569e-015 3.18055e-015 -4.77083e-015 -0.0187145 -0.00117436 5.67836e-005 -4.77083e-015 -6.36111e-015 -0 3.97569e-015 3.18055e-015 -4.77083e-015 -0.0122579 -0.00324279 0.000676209 -7.32629e-007 -4.71632e-007 6.53641e-009 3.97569e-015 3.18055e-015 -4.77083e-015 7.95139e-016 0 -1.59028e-015 7.95139e-016 0 -3.18055e-015 -0.603513 0.823979 24.7833 58.3351 -7.63308 11.7449 49.9968 -36.2629 101.83 43.3072 17.4071 5.81392 -1.24644e-006 1.80543e-007 4.76117e-007 1.64688e-007 8.18487e-007 -1.56648e-007 -3.90534e-007 1.48833e-007 -3.04683e-007 -1.24644e-006 1.80543e-007 4.76117e-007 0.0149743 -8.95457e-005 -4.2105e-006 -1.24735e-006 1.80611e-007 4.76094e-007 -1.24644e-006 1.80543e-007 4.76117e-007 0.0190303 -0.00119325 -5.88472e-005 -1.24759e-006 1.80694e-007 4.76103e-007 -1.24644e-006 1.80543e-007 4.76117e-007 0.0122026 -0.00322945 -0.000673044 -1.24717e-006 1.80783e-007 4.76173e-007 -1.24644e-006 1.80543e-007 4.76117e-007 1.64688e-007 8.18487e-007 -1.56648e-007 -3.90534e-007 1.48833e-007 -3.04683e-007 -2.80775 -16.8318 -1.37116 48.5722 55.5072 -43.2614 -4.8008 29.9757 1.19697 -6.55989e-015 -1.19271e-015 -4.77083e-015 3.46151 -38.0064 2.89895 -2.6247 34.6001 2.23026 5.08904 5.35812 0.489777 2.9365e-006 5.03945e-008 3.82645e-006 
28.2671 4.77717 -26.8203 89.9996 76.9891 179.985 2.41346 -0.172936 -0.31296 4.82597 -0.35892 -0.618341 4.82596 -0.358926 -0.618359 -0.000818868 58.683 0.000826508 -0.0400071 1.55229 -0.00103627 -17.7382 -3.35824 -43.0713 -47.8033 -15.4715 -17.2039 1.85342 -11.5507 -18.3176 -9.02758 0.387341 -31.0835 -1.76556e-031 6.36111e-015 1.59028e-015 5.56597e-015 0 -1.59028e-015 3.97569e-015 0 1.59028e-015 -1.76556e-031 6.36111e-015 1.59028e-015 -0.0146187 -8.92489e-005 1.81216e-006 5.56597e-015 3.18055e-015 -0 -1.76556e-031 6.36111e-015 1.59028e-015 -0.0187703 -0.00117416 6.02498e-005 3.18055e-015 -3.18055e-015 1.59028e-015 -1.76556e-031 6.36111e-015 1.59028e-015 -0.01226 -0.00324478 0.000673743 -2.38542e-015 6.36111e-015 -0 -1.76556e-031 6.36111e-015 1.59028e-015 5.56597e-015 0 -1.59028e-015 3.97569e-015 0 1.59028e-015 -0.857638 0.706544 24.5662 58.5021 -7.51659 11.8341 49.874 -35.6604 102.312 43.0182 17.2371 6.10793 1.59028e-015 7.95139e-016 -3.18055e-015 -1.19271e-015 0 -0 -3.57812e-015 2.38542e-015 -0 1.59028e-015 7.95139e-016 -3.18055e-015 0.0150323 -9.18147e-005 -8.37283e-008 3.97569e-016 1.59028e-015 -3.18055e-015 1.59028e-015 7.95139e-016 -3.18055e-015 0.0189943 -0.00118954 -6.44578e-005 3.97569e-016 -3.18055e-015 3.18055e-015 1.59028e-015 7.95139e-016 -3.18055e-015 0.0122341 -0.00323814 -0.000674021 -1.98785e-015 7.95139e-016 -3.18055e-015 1.59028e-015 7.95139e-016 -3.18055e-015 -1.19271e-015 0 -0 -3.57812e-015 2.38542e-015 -0 -2.45854 -17.0025 -0.749944 48.5792 55.5101 -43.245 -4.09295 29.9582 0.539887 -3.97569e-016 2.54444e-014 -0 3.46166 -38.0064 2.899 -2.62469 34.6001 2.2302 5.0889 5.35816 0.489781 -2.4173e-007 -3.82645e-006 5.0394e-008 
